<svg width="24" height="24" viewBox="0 0 24 24" fill="none" xmlns="http://www.w3.org/2000/svg">
<path d="M11.6 7.2C12.4837 7.2 13.2 6.48366 13.2 5.6C13.2 4.71634 12.4837 4 11.6 4C10.7163 4 10 4.71634 10 5.6C10 6.48366 10.7163 7.2 11.6 7.2Z" fill="white"/>
<path d="M11.6 13.6C12.4837 13.6 13.2 12.8836 13.2 12C13.2 11.1163 12.4837 10.4 11.6 10.4C10.7163 10.4 10 11.1163 10 12C10 12.8836 10.7163 13.6 11.6 13.6Z" fill="white"/>
<path d="M11.6 20C12.4837 20 13.2 19.2836 13.2 18.4C13.2 17.5163 12.4837 16.8 11.6 16.8C10.7163 16.8 10 17.5163 10 18.4C10 19.2836 10.7163 20 11.6 20Z" fill="white"/>
</svg>
